<svg id="icon_placeholder" data-name="icon placeholder" xmlns="http://www.w3.org/2000/svg" width="24" height="24" viewBox="0 0 24 24">
  <rect id="Rectangle_1" data-name="Rectangle 1" width="24" height="24" fill="none"/>
  <path id="notification" d="M19.245,15.581c-1.8-1.557-3.467-3.754-3.467-9.24a5.762,5.762,0,0,0-11.524,0c0,5.49-1.666,7.685-3.468,9.241A2.282,2.282,0,0,0,0,17.3a.655.655,0,0,0,.655.655h6.22a3.209,3.209,0,0,0,6.282,0h6.22a.655.655,0,0,0,.655-.655A2.269,2.269,0,0,0,19.245,15.581ZM10.016,19.2a1.9,1.9,0,0,1-1.781-1.243H11.8A1.9,1.9,0,0,1,10.016,19.2ZM1.569,16.647a.965.965,0,0,1,.076-.074c2.748-2.372,3.92-5.432,3.92-10.232a4.451,4.451,0,0,1,8.9,0c0,4.8,1.172,7.855,3.922,10.232a.973.973,0,0,1,.076.073Z" transform="translate(1.956 1.614)" fill="#fff" stroke="#fff" stroke-width="0.2"/>
</svg>
